<?xml version="1.0" standalone="no"?>
<!DOCTYPE svg PUBLIC "-//W3C//DTD SVG 20010904//EN"
 "http://www.w3.org/TR/2001/REC-SVG-20010904/DTD/svg10.dtd">
<svg version="1.0" xmlns="http://www.w3.org/2000/svg"
 width="275.000000pt" height="183.000000pt" viewBox="0 0 275.000000 183.000000"
 preserveAspectRatio="xMidYMid meet">

<g transform="translate(0.000000,183.000000) scale(0.100000,-0.100000)"
fill="#000000" stroke="none">
<path d="M2371 1259 c-34 -33 -35 -46 -8 -63 23 -15 69 29 65 63 -4 36 -22 36
-57 0z"/>
<path d="M839 1203 c-13 -16 -12 -17 4 -4 16 13 21 21 13 21 -2 0 -10 -8 -17
-17z"/>
<path d="M2115 1163 c-39 -10 -100 -53 -129 -90 -16 -21 -21 -30 -10 -20 12 9
24 14 27 10 11 -11 8 -23 -5 -21 -8 2 -12 -6 -10 -19 2 -13 -2 -23 -9 -23 -7
0 -9 -3 -6 -7 4 -3 -1 -12 -11 -20 -16 -12 -16 -13 2 -7 16 6 17 4 8 -13 -6
-11 -8 -24 -4 -28 4 -5 1 -5 -6 -1 -7 4 -9 12 -6 18 4 7 2 8 -4 4 -6 -4 -8
-14 -5 -24 6 -15 5 -15 -10 -3 -15 12 -17 12 -11 -2 6 -17 -11 -18 -35 -3 -11
7 -13 5 -8 -7 4 -10 2 -16 -6 -14 -14 2 -10 -41 5 -60 13 -16 59 -17 95 -1 15
6 57 32 93 57 l64 45 -24 -40 c-27 -44 -117 -162 -209 -274 -90 -109 -88 -106
-101 -130 -15 -28 -5 -67 20 -75 66 -21 148 86 398 520 22 39 65 99 96 134 61
70 71 101 33 97 -36 -4 -75 -33 -179 -133 -92 -89 -125 -109 -165 -101 -33 6
-19 33 33 60 70 38 134 108 134 148 0 31 -8 34 -55 23z m-70 -64 c8 -11 -25
-40 -37 -33 -8 5 13 44 24 44 4 0 10 -5 13 -11z m62 -10 c1 -8 -15 -27 -36
-44 -21 -16 -36 -34 -33 -40 3 -5 -3 -3 -13 5 -17 14 -18 13 -12 -2 4 -13 1
-18 -9 -18 -15 0 -14 3 1 28 10 15 28 39 41 53 14 14 22 28 19 31 -3 2 5 4 18
3 12 -1 23 -8 24 -16z"/>
<path d="M2019 1083 c-13 -16 -12 -17 4 -4 16 13 21 21 13 21 -2 0 -10 -8 -17
-17z"/>
<path d="M601 1092 c-43 -44 -76 -109 -86 -163 -5 -29 -2 -41 18 -65 23 -26
31 -29 84 -28 33 0 72 8 90 17 18 10 38 17 44 17 25 0 -34 -49 -144 -118 -151
-96 -222 -154 -258 -210 -49 -78 -33 -122 45 -122 103 0 253 120 388 311 37
52 77 104 90 115 28 26 100 74 110 74 4 0 8 -19 10 -42 3 -36 7 -44 30 -52 41
-14 114 18 173 77 28 28 42 44 33 37 -13 -9 -22 -10 -31 -1 -10 8 -19 7 -33
-4 -28 -21 -64 -19 -64 3 0 10 7 27 15 38 8 10 15 23 15 27 0 14 -43 3 -46
-11 -1 -7 0 -8 3 -2 2 5 12 10 21 10 15 -1 15 -2 -1 -11 -10 -6 -14 -15 -10
-22 5 -9 2 -8 -9 0 -8 7 -17 10 -21 7 -3 -3 -3 3 0 15 7 27 -22 39 -45 18 -9
-8 -28 -18 -42 -22 -24 -8 -24 -7 -7 18 l17 26 -40 11 c-44 12 -57 6 -140 -61
-146 -119 -190 -65 -80 96 l28 40 -32 1 c-17 1 -44 5 -59 9 -24 6 -33 2 -66
-33z m454 -91 c3 -5 0 -13 -6 -17 -7 -4 -9 -3 -5 4 3 5 0 13 -6 15 -9 4 -10 6
-1 6 6 1 14 -3 18 -8z m-468 -373 c-30 -52 -123 -141 -140 -135 -29 9 -17 41
37 93 55 53 116 97 124 89 3 -2 -7 -24 -21 -47z"/>
<path d="M1159 1043 c-13 -16 -12 -17 4 -4 9 7 17 15 17 17 0 8 -8 3 -21 -13z"/>
<path d="M1891 1045 c-1 -21 14 -34 29 -25 13 8 13 10 -2 10 -9 0 -19 6 -21
13 -3 6 -6 8 -6 2z"/>
<path d="M1279 993 c-13 -16 -12 -17 4 -4 16 13 21 21 13 21 -2 0 -10 -8 -17
-17z"/>
<path d="M1411 944 c0 -11 3 -14 6 -6 3 7 2 16 -1 19 -3 4 -6 -2 -5 -13z"/>
<path d="M1529 913 c-13 -16 -12 -17 4 -4 16 13 21 21 13 21 -2 0 -10 -8 -17
-17z"/>
<path d="M1310 892 c0 -69 135 -83 188 -19 10 12 1 15 -55 20 -38 4 -83 9
-100 12 -28 5 -33 3 -33 -13z"/>
<path d="M1705 891 c-6 -6 -34 -11 -64 -13 -43 -2 -57 -8 -69 -26 l-15 -23 62
3 c58 3 63 5 82 36 21 32 22 41 4 23z"/>
</g>
</svg>
